<svg width="748" height="1084" viewBox="0 0 748 1084" fill="none" xmlns="http://www.w3.org/2000/svg">
<path d="M430.5 87.0001C384.673 27.1916 297.393 43.1523 242.584 71.5856C222.205 82.1572 211.374 103.883 209.374 126.753L208.452 137.294C206.051 164.756 187.622 188.192 161.5 197L129.285 203.064C95.8525 209.357 66.9677 230.232 50.4999 260L39.5708 287.323C23.8186 326.703 33.5777 371.705 64.2279 401.022L66.241 402.948C76.9245 413.167 85.0023 425.798 89.7971 439.783C96.7186 459.971 96.4448 481.931 89.0221 501.94L86.1127 509.783C73.4484 543.922 77.5607 582.027 97.217 612.677L118.166 645.344C122.711 652.431 126.551 659.946 129.632 667.781L141.574 698.155C145.838 709.002 148.613 720.376 149.823 731.968L154 772L154 830L154 897.7C154 907.379 158.366 916.541 165.883 922.638L173.045 928.447C186.043 938.991 205.521 934.144 212.063 918.739C213.663 914.97 214.32 910.867 213.976 906.787L209.661 855.629C208.242 838.802 210.986 821.884 217.652 806.368L219.9 801.134C231.292 774.616 254.524 755.024 282.585 748.273C296.98 744.809 312 744.89 326.358 748.507L341.479 752.318C358.769 756.674 374.376 766.068 386.32 779.307C401.241 795.846 409.5 817.329 409.5 839.604L409.5 873L409.5 927.5L412.634 971.37C413.863 988.588 418.786 1005.34 427.067 1020.49L439.138 1042.56C447.651 1058.13 462.319 1069.4 479.554 1073.62L483.424 1074.56C506.635 1080.24 530.936 1070.95 544.436 1051.23C554.275 1036.86 557.059 1018.8 552.004 1002.14L543.995 975.726C542.334 970.25 540.266 964.905 537.809 959.737L520.532 923.395C515.205 912.19 511.523 900.276 509.598 888.019L505.247 860.309C503.757 850.821 503.661 841.165 504.962 831.649L507.371 814.022C510.554 790.733 525.69 770.808 547.271 761.494L553.734 758.704C557.868 756.92 562.322 756 566.824 756C581.459 756 594.349 765.628 598.502 779.661L603.645 797.041C605.207 802.319 606 807.795 606 813.3L606 863.5L608.879 904.221C609.292 910.053 610.396 915.815 612.168 921.386L618.179 940.276C621.524 950.789 629.677 959.081 640.132 962.602C657.479 968.446 676.378 959.785 683.278 942.831L685.485 937.408C687.476 932.516 688.5 927.284 688.5 922.002L688.5 911.077C688.5 899.78 686.52 888.57 682.651 877.956L675.269 857.71C672.43 849.921 670.348 841.877 669.052 833.69L661.808 787.925C660.605 780.324 660.098 772.645 659.81 764.954C658.651 734.037 653.393 670.707 660 633.5C669.5 580 710 537 722 471C735.313 397.781 649 378.5 647.5 346.5C646 314.5 667.599 297.566 677 251.5C687 202.5 629 143 589 125.5C580.5 121.781 556.5 109 508.5 125.5C467.841 139.477 460 125.5 430.5 87.0001Z" fill="#ffa500" stroke="black" stroke-width="5"/>
<path d="M690.221 467.462L666.39 536.667C661.854 549.841 650.633 559.594 636.956 562.253L565.107 576.217C551.43 578.876 537.373 574.035 528.232 563.52L480.214 508.279C471.073 497.763 468.237 483.17 472.773 469.996L496.604 400.791C501.14 387.616 512.361 377.863 526.038 375.205L597.887 361.24C611.564 358.582 625.621 363.422 634.762 373.938L682.78 429.178C691.921 439.694 694.757 454.288 690.221 467.462Z" fill="#E9C74C" stroke="#473800" stroke-width="10"/>
<path d="M482.724 395.733L458.893 464.938C454.357 478.112 443.136 487.866 429.459 490.524L357.61 504.489C343.933 507.147 329.876 502.307 320.735 491.791L272.717 436.551C263.576 426.035 260.74 411.441 265.276 398.267L289.107 329.062C293.643 315.888 304.864 306.134 318.541 303.476L390.39 289.511C404.067 286.853 418.124 291.693 427.265 302.209L475.283 357.449C484.424 367.965 487.26 382.559 482.724 395.733Z" fill="#E9C74C" stroke="#473800" stroke-width="10"/>
<path d="M275.418 324.986L251.587 394.191C247.051 407.365 235.83 417.119 222.153 419.777L150.304 433.742C136.627 436.4 122.57 431.56 113.429 421.044L65.4111 365.803C56.2702 355.288 53.4337 340.694 57.9702 327.52L81.8007 258.315C86.3372 245.141 97.5574 235.387 111.235 232.729L183.083 218.764C196.761 216.106 210.818 220.946 219.958 231.462L267.977 286.702C277.118 297.218 279.954 311.812 275.418 324.986Z" fill="#E9C74C" stroke="#473800" stroke-width="10"/>
<path d="M648.437 252.485L624.606 321.69C620.07 334.864 608.85 344.617 595.172 347.276L523.324 361.24C509.646 363.899 495.59 359.058 486.449 348.543L438.431 293.302C429.29 282.786 426.453 268.193 430.99 255.019L454.82 185.813C459.357 172.639 470.577 162.886 484.254 160.228L556.103 146.263C569.78 143.605 583.837 148.445 592.978 158.961L640.996 214.201C650.137 224.717 652.973 239.311 648.437 252.485Z" fill="#E9C74C" stroke="#473800" stroke-width="10"/>
<path d="M440.94 180.756L417.11 249.961C412.573 263.135 401.353 272.889 387.675 275.547L315.827 289.512C302.149 292.17 288.093 287.33 278.952 276.814L230.934 221.573C221.793 211.058 218.956 196.464 223.493 183.29L247.323 114.085C251.86 100.911 263.08 91.1573 276.757 88.499L348.606 74.5342C362.283 71.8759 376.34 76.7162 385.481 87.232L433.499 142.472C442.64 152.988 445.477 167.582 440.94 180.756Z" fill="#E9C74C" stroke="#473800" stroke-width="10"/>
<path d="M524.507 610.71L500.677 679.915C496.14 693.089 484.92 702.843 471.243 705.501L399.394 719.466C385.717 722.124 371.66 717.284 362.519 706.768L314.501 651.528C305.36 641.012 302.523 626.418 307.06 613.244L330.89 544.039C335.427 530.865 346.647 521.111 360.325 518.453L432.173 504.488C445.851 501.83 459.907 506.67 469.048 517.186L517.066 572.427C526.207 582.942 529.044 597.536 524.507 610.71Z" fill="#E9C74C" stroke="#473800" stroke-width="10"/>
<path d="M317.201 539.963L293.371 609.168C288.834 622.342 277.614 632.096 263.936 634.754L192.088 648.719C178.41 651.377 164.354 646.537 155.213 636.021L107.195 580.78C98.0538 570.265 95.2173 555.671 99.7538 542.497L123.584 473.292C128.121 460.118 139.341 450.364 153.018 447.706L224.867 433.741C238.544 431.083 252.601 435.923 261.742 446.439L309.76 501.679C318.901 512.195 321.738 526.789 317.201 539.963Z" fill="#E9C74C" stroke="#473800" stroke-width="10"/>
</svg>
